<?xml version="1.0" encoding="utf-8"?>
<!-- Generator: Adobe Illustrator 17.0.0, SVG Export Plug-In . SVG Version: 6.00 Build 0)  -->
<!DOCTYPE svg PUBLIC "-//W3C//DTD SVG 1.1//EN" "http://www.w3.org/Graphics/SVG/1.1/DTD/svg11.dtd">
<svg version="1.1" xmlns="http://www.w3.org/2000/svg" xmlns:xlink="http://www.w3.org/1999/xlink" x="0px" y="0px"
	 width="426.389px" height="425.173px" viewBox="0 0 426.389 425.173" enable-background="new 0 0 426.389 425.173"
	 xml:space="preserve">
<g id="Capa_1">
</g>
<g id="historial">
</g>
<g id="usurios">
</g>
<g id="dash">
	<g>
		<g>
			<g>
				<polygon fill="#757575" stroke="#FFFFFF" stroke-width="1.5" stroke-miterlimit="10" points="142.13,198.268 183.79,167.248 
					316.043,167.248 367.622,198.268 				"/>
				
					<line fill="#757575" stroke="#FFFFFF" stroke-width="1.5" stroke-miterlimit="10" x1="252.337" y1="167.248" x2="252.337" y2="198.268"/>
				<g>
					<path fill="#757575" stroke="#FFFFFF" stroke-width="1.5" stroke-miterlimit="10" d="M381.995,198.268
						c-24.301,0-246.362,0-246.362,0l-10.976,13.287v42.796h32.97c0-13.03,10.563-23.593,23.593-23.593
						c13.03,0,23.592,10.564,23.592,23.593h119.98c0-13.03,10.563-23.593,23.593-23.593s23.592,10.564,23.592,23.593h43.86v-35.864
						C415.838,218.488,406.296,198.268,381.995,198.268z"/>
					<circle fill="#757575" stroke="#FFFFFF" stroke-width="1.5" stroke-miterlimit="10" cx="181.22" cy="254.351" r="23.593"/>
					<circle fill="#757575" stroke="#FFFFFF" stroke-width="1.5" stroke-miterlimit="10" cx="348.385" cy="254.351" r="23.593"/>
				</g>
			</g>
			<g>
				<polygon fill="#757575" stroke="#FFFFFF" stroke-width="1.5" stroke-miterlimit="10" points="60.821,199.729 93.453,156.219 
					197.049,156.219 237.451,199.729 				"/>
				
					<line fill="#757575" stroke="#FFFFFF" stroke-width="1.5" stroke-miterlimit="10" x1="144.733" y1="156.219" x2="144.733" y2="199.729"/>
				<g>
					<path fill="#757575" stroke="#FFFFFF" stroke-width="1.5" stroke-miterlimit="10" d="M249.883,199.729H40.101l-9.841,11.913
						v61.84h22.983c0-15.315,12.415-27.73,27.73-27.73s27.73,12.415,27.73,27.73h106.087c0-15.315,12.415-27.73,27.73-27.73
						c15.314,0,27.73,12.415,27.73,27.73h21.073v-55.624L249.883,199.729z"/>
					<circle fill="#757575" stroke="#FFFFFF" stroke-width="1.5" stroke-miterlimit="10" cx="242.518" cy="273.483" r="27.73"/>
					<circle fill="#757575" stroke="#FFFFFF" stroke-width="1.5" stroke-miterlimit="10" cx="80.972" cy="273.483" r="27.73"/>
				</g>
			</g>
		</g>
	</g>
</g>
</svg>
