<?xml version="1.0" encoding="utf-8"?>
<!-- Generator: Adobe Illustrator 17.0.0, SVG Export Plug-In . SVG Version: 6.00 Build 0)  -->
<!DOCTYPE svg PUBLIC "-//W3C//DTD SVG 1.1//EN" "http://www.w3.org/Graphics/SVG/1.1/DTD/svg11.dtd">
<svg version="1.1" xmlns="http://www.w3.org/2000/svg" xmlns:xlink="http://www.w3.org/1999/xlink" x="0px" y="0px"
	 width="426.389px" height="425.173px" viewBox="0 0 426.389 425.173" enable-background="new 0 0 426.389 425.173"
	 xml:space="preserve">
<g id="Capa_1">
</g>
<g id="historial">
</g>
<g id="usurios">
</g>
<g id="dash">
	<g>
		<g>
			<path fill="none" d="M310.421,348.203c14.549,0,24.337-5.763,24.337-15.551c0-6.073-3.291-10.718-10.506-14.914
				c-13.801,9.645-32.16,16.51-52.624,20.904C281.914,343.796,295.508,348.203,310.421,348.203z"/>
			<path fill="#FFFFFF" d="M97.017,196.823v42.04c39.624,29.138,110.462,35.076,165.814,23.639
				c1.08-21.169,16.438-37.456,42.317-42.282v-15.5c-27.219,11.273-62.309,17.489-97.744,17.489
				C167.34,222.209,126.922,214.256,97.017,196.823z"/>
			<path fill="#FFFFFF" d="M320.416,175.887c-0.024-17.68-0.056-35.548-0.09-52.396c-24.232,13.138-69.052,19.303-111.676,19.303
				c-42.601,0-87.394-6.159-111.632-19.283v51.586C153.127,216.356,271.821,211.098,320.416,175.887z"/>
			<path fill="#FFFFFF" d="M97.017,260.588v33.17c6.995,12.336,31.062,23.267,63.676,28.779
				c46.272,7.825,106.743,4.046,142.266-13.473c-18.058-6.668-31.588-15.34-37.27-28.833c-18.429,3.742-38.295,5.743-58.285,5.743
				C167.345,285.975,126.923,278.022,97.017,260.588z"/>
			<path fill="#757575" d="M271.628,338.642c20.464-4.395,38.823-11.26,52.624-20.904c-4.123-2.398-9.502-4.65-16.344-6.931
				c-1.684-0.566-3.334-1.147-4.948-1.743c-35.522,17.52-95.993,21.299-142.266,13.473c-32.615-5.513-56.682-16.444-63.676-28.779
				v-33.17c-5.274-3.075-10.262-6.409-14.82-10.085c-3.918-3.16-4.529-8.892-1.375-12.804c3.165-3.93,8.892-4.529,12.804-1.375
				c1.088,0.877,2.25,1.701,3.391,2.539v-42.04c-5.274-3.075-10.262-6.409-14.82-10.085c-3.918-3.16-4.529-8.892-1.375-12.804
				c3.165-3.93,8.892-4.535,12.804-1.375c1.088,0.877,2.25,1.701,3.391,2.539v-51.586c-11.341-6.14-18.198-13.8-18.198-23.077
				c0-0.142,0.027-0.278,0.03-0.419c-0.007,0.142-0.042,0.276-0.042,0.419v195.469c0,1.274,0.267,2.543,0.788,3.705
				c11.613,26.059,53.896,36.8,78.063,40.884c16.485,2.786,34.518,4.262,52.728,4.262c19.651,0,39.481-1.75,57.806-5.399
				l0.562-2.187C269.668,337.667,270.653,338.153,271.628,338.642z"/>
			<path fill="#757575" d="M320.326,123.491c0.034,16.848,0.065,34.716,0.09,52.396c1.104-0.801,2.221-1.597,3.251-2.428
				c3.912-3.165,9.645-2.543,12.804,1.375c3.154,3.912,2.543,9.645-1.375,12.804c-3.856,3.11-8.211,6.009-12.913,8.734h7.548v22.09
				c3.188,0.095,6.123,0.342,8.939,0.658c-0.004-5.728-0.011-11.836-0.018-18.352c-0.053-50.209-0.166-100.358-0.166-100.358
				c0-0.02-0.006-0.038-0.006-0.057c0,0.027,0.006,0.053,0.006,0.081C338.486,109.701,331.644,117.355,320.326,123.491z"/>
			<path fill="#757575" d="M335.096,187.638c3.918-3.16,4.529-8.892,1.375-12.804c-3.16-3.918-8.892-4.541-12.804-1.375
				c-1.031,0.831-2.147,1.627-3.251,2.428c-48.595,35.211-167.289,40.469-223.398-0.79c-1.141-0.839-2.303-1.662-3.391-2.539
				c-3.912-3.16-9.639-2.555-12.804,1.375c-3.154,3.912-2.543,9.645,1.375,12.804c4.558,3.676,9.545,7.01,14.82,10.085
				c29.904,17.434,70.323,25.387,110.388,25.387c35.434,0,70.525-6.216,97.744-17.489v-8.348h17.034
				C326.885,193.648,331.24,190.748,335.096,187.638z"/>
			<path fill="#757575" d="M97.017,238.863c-1.141-0.839-2.303-1.662-3.391-2.539c-3.912-3.154-9.639-2.555-12.804,1.375
				c-3.154,3.912-2.543,9.645,1.375,12.804c4.558,3.676,9.545,7.01,14.82,10.085c29.906,17.434,70.327,25.387,110.388,25.387
				c19.99,0,39.856-2.001,58.285-5.743c-1.911-4.538-2.964-9.602-2.964-15.341c0-0.808,0.065-1.595,0.105-2.389
				C207.479,273.939,136.642,268.001,97.017,238.863z"/>
			<path fill="#FFFFFF" d="M97.029,100.434c0,7.007,39.118,24.15,111.621,24.15c72.509,0,111.626-17.143,111.626-24.15
				c0-7.007-39.118-24.144-111.626-24.144C136.147,76.29,97.029,93.428,97.029,100.434z"/>
			<path fill="#757575" d="M97.017,123.511c24.239,13.124,69.032,19.283,111.632,19.283c42.624,0,87.444-6.165,111.676-19.303
				c11.318-6.137,18.161-13.79,18.161-23.057c0-0.027-0.006-0.053-0.006-0.081C338.354,71.311,271.123,58.08,208.65,58.08
				c-62.227,0-129.148,13.131-129.8,41.936c-0.004,0.141-0.03,0.277-0.03,0.419C78.819,109.711,85.677,117.371,97.017,123.511z
				 M320.276,100.434c0,7.007-39.118,24.15-111.626,24.15c-72.503,0-111.621-17.143-111.621-24.15
				c0-7.007,39.118-24.144,111.621-24.144C281.159,76.29,320.276,93.428,320.276,100.434z"/>
			<path fill="#757575" d="M338.518,292.482c-2.236-0.923-4.547-1.832-7.03-2.708c-4.207-1.518-7.789-2.934-11.053-4.315
				c-7.385-3.124-12.535-6.008-15.589-9.023c-2.521-2.487-3.723-5.073-3.723-7.996c0-7.03,5.271-14.304,21.579-14.304
				c5.648,0,10.612,0.598,15.056,1.463c0.308,0.06,0.622,0.116,0.924,0.179c9.302,1.932,15.99,5.13,20.169,7.144l7.519-28.363
				c-7.097-3.235-15.875-6.292-27.701-7.619c-2.816-0.316-5.751-0.563-8.939-0.658v-22.09h-7.548h-17.034v8.348v15.5
				c-25.879,4.825-41.237,21.113-42.317,42.282c-0.04,0.794-0.105,1.581-0.105,2.389c0,5.74,1.053,10.803,2.964,15.341
				c5.682,13.493,19.212,22.165,37.27,28.833c1.614,0.596,3.264,1.177,4.948,1.743c6.843,2.281,12.222,4.533,16.344,6.931
				c7.216,4.195,10.506,8.841,10.506,14.914c0,9.788-9.788,15.551-24.337,15.551c-14.914,0-28.507-4.407-38.793-9.56
				c-0.975-0.489-1.961-0.976-2.874-1.475l-0.562,2.187l-6.979,27.177c9.543,5.271,25.85,10.033,42.668,10.789v23.828h24.849v-25.85
				c28.854-4.761,44.424-23.827,44.424-46.161C373.155,316.009,363.197,302.682,338.518,292.482z"/>
		</g>
	</g>
</g>
</svg>
