<?xml version="1.0" encoding="utf-8"?>
<!-- Generator: Adobe Illustrator 17.0.0, SVG Export Plug-In . SVG Version: 6.00 Build 0)  -->
<!DOCTYPE svg PUBLIC "-//W3C//DTD SVG 1.1//EN" "http://www.w3.org/Graphics/SVG/1.1/DTD/svg11.dtd">
<svg version="1.1" xmlns="http://www.w3.org/2000/svg" xmlns:xlink="http://www.w3.org/1999/xlink" x="0px" y="0px"
	 width="426.389px" height="425.173px" viewBox="0 0 426.389 425.173" enable-background="new 0 0 426.389 425.173"
	 xml:space="preserve">
<g id="Capa_1">
</g>
<g id="historial">
</g>
<g id="usurios">
</g>
<g id="dash">
	<g>
		<g>
			<path fill="#757575" d="M200.258,250.621c-37.561-6.209-67.415-35.186-74.772-72.347c-0.594-0.011-1.173-0.09-1.77-0.09
				c-50.562,0-91.551,40.989-91.551,91.551s40.989,91.551,91.551,91.551c36.836,0,68.506-21.802,83.032-53.164
				c-5.414-11.687-8.52-24.66-8.52-38.387C198.227,263.176,198.947,256.79,200.258,250.621z"/>
			<path fill="#757575" d="M320.87,179.52c-8.795,41.381-45.517,72.437-89.52,72.437c-5.124,0-10.114-0.525-15.009-1.335
				c-1.311,6.169-2.03,12.555-2.03,19.115c0,13.727,3.106,26.7,8.52,38.387c14.526,31.362,46.196,53.164,83.031,53.164
				c50.561,0,91.55-40.989,91.55-91.551C397.412,224.298,364.276,186.695,320.87,179.52z M388.235,278.897
				c-0.38,2.388-1.256,4.359-1.904,5.97c-1.31,3.217-2.136,4.955-2.136,4.955s-0.007-2.016,0.118-5.366
				c0.087-1.671,0.215-3.668-0.017-5.979c-0.259-2.304-0.085-4.843-0.609-7.6c-0.561-2.747-0.676-5.71-1.578-8.759
				c-0.717-3.068-1.535-6.248-2.695-9.47c-0.878-3.296-2.547-6.438-3.81-9.77c-1.474-3.243-3.117-6.502-4.969-9.611
				c-1.8-3.154-3.655-6.278-5.835-9.115c-1.986-2.988-4.311-5.607-6.426-8.298c-2.435-2.328-4.466-5.025-6.89-6.958
				c-2.278-2.169-4.606-3.922-6.825-5.542c-2.202-1.639-4.456-2.661-6.384-3.903c-1.979-0.714-3.743-1.603-5.338-2.155
				c-3.348-0.675-5.259-1.156-5.259-1.156s1.929-0.385,5.302-0.892c1.707-0.003,3.903,0.163,6.494,0.447
				c2.33,0.672,5.221,1.141,7.978,2.439c2.811,1.205,5.873,2.6,8.71,4.643c3.061,1.786,5.786,4.24,8.712,6.714
				c2.57,2.767,5.634,5.354,7.9,8.644c2.527,3.101,4.715,6.508,6.832,9.97c1.982,3.529,3.687,7.227,5.218,10.901
				c1.427,3.735,2.652,7.468,3.381,11.215c1.021,3.664,1.314,7.358,1.561,10.827c0.506,3.432-0.038,6.779-0.132,9.765
				C389.59,273.817,388.658,276.531,388.235,278.897z"/>
			<path fill="#757575" d="M312.351,170.005c1.312-6.168,2.032-12.555,2.032-19.115c0-50.562-40.989-91.55-91.551-91.55
				s-91.551,40.989-91.551,91.55c0,6.118,0.626,12.086,1.77,17.87c7.357,37.161,37.211,66.138,74.772,72.347
				c4.895,0.809,9.885,1.335,15.009,1.335C266.834,242.441,303.556,211.386,312.351,170.005z M232.377,74.726
				c1.767-0.56,4.182-0.369,6.964-0.471c2.87-0.162,5.719,0.717,9.098,1.271c3.149,1.001,6.732,2.028,10.112,3.811
				c3.408,1.746,7.031,3.633,10.282,6.244c3.49,2.335,6.579,5.316,9.796,8.287c2.839,3.291,6.057,6.398,8.545,10.069
				c1.26,1.821,2.566,3.61,3.75,5.467c1.09,1.917,2.177,3.826,3.254,5.721c2.231,3.744,3.57,7.898,5.154,11.706
				c1.158,4.014,2.53,7.781,2.93,11.622c0.284,1.881,0.559,3.71,0.826,5.48c0.134,1.787,0.054,3.546,0.084,5.2
				c-0.026,1.661,0.07,3.235-0.066,4.735c-0.247,1.494-0.482,2.91-0.702,4.242c-0.359,2.648-0.884,4.892-1.668,6.672
				c-1.343,3.581-2.185,5.497-2.185,5.497s0.01-2.211,0.155-5.852c0.217-1.799-0.01-4.015-0.26-6.512
				c-0.135-2.491-0.466-5.249-1.194-8.224c-0.467-2.987-1.438-6.118-2.501-9.403c-0.81-3.334-2.662-6.575-3.892-10.083
				c-1.69-3.357-3.388-6.839-5.417-10.212l-3.082-5.083c-1.116-1.649-2.366-3.218-3.527-4.845c-2.139-3.399-4.98-6.244-7.444-9.314
				c-2.864-2.663-5.263-5.797-8.23-8.061c-2.771-2.541-5.634-4.688-8.441-6.672c-2.802-1.96-5.672-3.428-8.29-4.925
				c-2.745-0.938-5.297-2.509-7.59-2.928c-2.325-0.432-4.359-1.414-6.262-1.401c-3.728-0.234-5.868-0.463-5.868-0.463
				S228.765,75.668,232.377,74.726z"/>
		</g>
	</g>
</g>
</svg>
