<?xml version="1.0" encoding="utf-8"?>
<!-- Generator: Adobe Illustrator 17.0.0, SVG Export Plug-In . SVG Version: 6.00 Build 0)  -->
<!DOCTYPE svg PUBLIC "-//W3C//DTD SVG 1.1//EN" "http://www.w3.org/Graphics/SVG/1.1/DTD/svg11.dtd">
<svg version="1.1" xmlns="http://www.w3.org/2000/svg" xmlns:xlink="http://www.w3.org/1999/xlink" x="0px" y="0px"
	 width="426.389px" height="425.173px" viewBox="0 0 426.389 425.173" enable-background="new 0 0 426.389 425.173"
	 xml:space="preserve">
<g id="Capa_1">
</g>
<g id="historial">
</g>
<g id="usurios">
</g>
<g id="dash">
</g>
<g id="Capa_5">
	<path fill="#29B6F6" d="M336.485,37.798h-14.859c-1.546,4.243-4.871,7.186-8.734,7.186c-3.863,0-7.187-2.943-8.734-7.186h-5.006
		c-1.547,4.243-4.871,7.186-8.735,7.186c-3.864,0-7.188-2.943-8.734-7.186h-5.006c-1.547,4.243-4.871,7.186-8.734,7.186
		s-7.188-2.943-8.735-7.186h-5.006c-1.547,4.243-4.871,7.186-8.734,7.186s-7.188-2.943-8.734-7.186h-5.006
		c-1.547,4.243-4.871,7.186-8.735,7.186c-3.864,0-7.188-2.943-8.734-7.186h-5.006c-1.547,4.243-4.871,7.186-8.735,7.186
		c-3.863,0-7.187-2.943-8.734-7.186h-5.006c-1.547,4.243-4.871,7.186-8.735,7.186c-3.863,0-7.188-2.943-8.734-7.186h-5.006
		c-1.547,4.243-4.871,7.186-8.734,7.186c-3.863,0-7.188-2.943-8.735-7.186h-5.006c-1.547,4.243-4.871,7.186-8.734,7.186
		c-3.864,0-7.187-2.943-8.734-7.186h-5.006c-1.547,4.243-4.871,7.186-8.735,7.186s-7.187-2.943-8.734-7.186H79.051
		c0,12.677-8.383,23.393-19.906,26.916v74.477v212.444c11.523,3.523,19.906,14.24,19.906,26.916c0,0.198-0.011,0.393-0.016,0.589
		h14.666c1.443-4.56,4.901-7.775,8.942-7.775c4.041,0,7.499,3.215,8.942,7.775h4.59c1.443-4.56,4.901-7.775,8.942-7.775
		c4.041,0,7.499,3.215,8.942,7.775h4.591c1.443-4.56,4.901-7.775,8.942-7.775c4.042,0,7.499,3.215,8.942,7.775h4.591
		c1.443-4.56,4.901-7.775,8.942-7.775c4.041,0,7.499,3.215,8.942,7.775h4.591c1.443-4.56,4.9-7.775,8.942-7.775
		c4.041,0,7.499,3.215,8.942,7.775h4.591c1.443-4.56,4.901-7.775,8.942-7.775c4.041,0,7.499,3.215,8.942,7.775h4.591
		c1.443-4.56,4.901-7.775,8.942-7.775c4.041,0,7.499,3.215,8.942,7.775h4.591c1.443-4.56,4.9-7.775,8.942-7.775
		s7.499,3.215,8.942,7.775h4.591c1.443-4.56,4.901-7.775,8.942-7.775c4.041,0,7.499,3.215,8.942,7.775h4.591
		c1.443-4.56,4.901-7.775,8.942-7.775s7.499,3.215,8.942,7.775H336.5c-0.003-0.197-0.014-0.392-0.014-0.589
		c0-11.914,7.407-22.092,17.865-26.199V139.191V63.997C343.893,59.89,336.485,49.712,336.485,37.798z"/>
	<path fill="none" stroke="#039BE5" stroke-width="2" stroke-miterlimit="10" d="M326.569,50.844h-13.723
		c-1.428,3.918-4.498,6.637-8.067,6.637c-3.568,0-6.638-2.718-8.066-6.637h-4.623c-1.429,3.918-4.499,6.637-8.067,6.637
		c-3.568,0-6.638-2.718-8.067-6.637h-4.623c-1.428,3.918-4.498,6.637-8.067,6.637s-6.639-2.718-8.067-6.637h-4.623
		c-1.429,3.918-4.498,6.637-8.067,6.637s-6.639-2.718-8.067-6.637h-4.623c-1.429,3.918-4.499,6.637-8.067,6.637
		c-3.568,0-6.639-2.718-8.067-6.637h-4.623c-1.429,3.918-4.499,6.637-8.067,6.637c-3.568,0-6.638-2.718-8.066-6.637h-4.623
		c-1.428,3.918-4.499,6.637-8.067,6.637c-3.568,0-6.638-2.718-8.066-6.637h-4.623c-1.429,3.918-4.498,6.637-8.067,6.637
		c-3.568,0-6.638-2.718-8.067-6.637h-4.623c-1.429,3.918-4.498,6.637-8.067,6.637c-3.568,0-6.638-2.718-8.066-6.637h-4.623
		c-1.428,3.918-4.499,6.637-8.067,6.637c-3.568,0-6.638-2.718-8.067-6.637H88.811c0,11.708-7.742,21.605-18.384,24.859v68.784
		v196.206c10.643,3.254,18.384,13.151,18.384,24.859c0,0.182-0.011,0.363-0.014,0.544h13.545c1.333-4.212,4.526-7.181,8.258-7.181
		c3.732,0,6.925,2.969,8.258,7.181h4.239c1.333-4.212,4.526-7.181,8.258-7.181c3.732,0,6.926,2.969,8.258,7.181h4.24
		c1.333-4.212,4.527-7.181,8.258-7.181c3.733,0,6.926,2.969,8.259,7.181h4.24c1.333-4.212,4.527-7.181,8.258-7.181
		c3.732,0,6.925,2.969,8.258,7.181h4.24c1.332-4.212,4.526-7.181,8.258-7.181c3.732,0,6.925,2.969,8.258,7.181h4.24
		c1.333-4.212,4.526-7.181,8.258-7.181c3.732,0,6.925,2.969,8.258,7.181h4.24c1.333-4.212,4.526-7.181,8.258-7.181
		c3.732,0,6.926,2.969,8.258,7.181h4.24c1.333-4.212,4.526-7.181,8.258-7.181c3.733,0,6.926,2.969,8.258,7.181h4.24
		c1.333-4.212,4.526-7.181,8.258-7.181c3.732,0,6.925,2.969,8.258,7.181h4.24c1.332-4.212,4.526-7.181,8.258-7.181
		c3.732,0,6.926,2.969,8.258,7.181h20.913c-0.003-0.182-0.013-0.362-0.013-0.544c0-11.004,6.841-20.403,16.499-24.196V144.487V75.04
		C333.41,71.247,326.569,61.847,326.569,50.844z"/>
</g>
</svg>
