<?xml version="1.0" encoding="utf-8"?>
<!-- Generator: Adobe Illustrator 17.0.0, SVG Export Plug-In . SVG Version: 6.00 Build 0)  -->
<!DOCTYPE svg PUBLIC "-//W3C//DTD SVG 1.1//EN" "http://www.w3.org/Graphics/SVG/1.1/DTD/svg11.dtd">
<svg version="1.1" xmlns="http://www.w3.org/2000/svg" xmlns:xlink="http://www.w3.org/1999/xlink" x="0px" y="0px"
	 width="426.389px" height="425.173px" viewBox="0 0 426.389 425.173" enable-background="new 0 0 426.389 425.173"
	 xml:space="preserve">
<g id="Capa_1">
</g>
<g id="historial">
</g>
<g id="usurios">
</g>
<g id="dash">
	<g>
		<g>
			<path fill="#757575" d="M264.599,177.38v47.018h59.367v18.253h-59.367v28.002h-96.824V406.03h168.676V177.38H264.599z
				 M323.966,359.012H183.649v-18.253h140.317V359.012z M323.966,300.831H183.649v-18.253h140.317V300.831z"/>
			<rect x="264.599" y="224.399" fill="#FFFFFF" width="59.367" height="18.253"/>
			<rect x="183.649" y="282.579" fill="#FFFFFF" width="140.317" height="18.253"/>
			<rect x="183.649" y="340.759" fill="#FFFFFF" width="140.317" height="18.253"/>
			<path fill="#757575" d="M258.613,235.756v-18.253v-47.018V35.11H89.938v228.649h71.852h96.824V235.756z M105.811,82.127h140.317
				v18.253H105.811V82.127z M105.811,140.308h140.317v18.252H105.811V140.308z M105.811,216.74v-18.252h140.317v18.252H105.811z"/>
			<rect x="105.811" y="82.127" fill="#FFFFFF" width="140.317" height="18.253"/>
			<rect x="105.811" y="140.308" fill="#FFFFFF" width="140.317" height="18.252"/>
			<rect x="105.811" y="198.488" fill="#FFFFFF" width="140.317" height="18.252"/>
		</g>
	</g>
</g>
</svg>
